<svg width="41" height="41" viewBox="0 0 41 41" fill="none" xmlns="http://www.w3.org/2000/svg">
<g filter="url(#filter0_i_34_2667)">
<rect x="0.5" y="0.581055" width="40" height="40" rx="20" fill="#6EBCF7"/>
<rect x="1.83333" y="1.91439" width="37.3333" height="37.3333" rx="18.6667" stroke="url(#paint0_linear_34_2667)" stroke-width="2.66667"/>
<path d="M18.1206 29.2889V23.3469H22.8741V29.2889C22.8741 29.9425 23.4089 30.4773 24.0625 30.4773H27.6277C28.2813 30.4773 28.8161 29.9425 28.8161 29.2889V20.9701H30.8364C31.3831 20.9701 31.6445 20.2928 31.2286 19.9362L21.2936 10.9876C20.842 10.5836 20.1527 10.5836 19.7011 10.9876L9.76613 19.9362C9.36207 20.2928 9.61163 20.9701 10.1583 20.9701H12.1786V29.2889C12.1786 29.9425 12.7133 30.4773 13.367 30.4773H16.9322C17.5858 30.4773 18.1206 29.9425 18.1206 29.2889Z" fill="white"/>
</g>
<defs>
<filter id="filter0_i_34_2667" x="0.5" y="0.581055" width="40" height="46.6667" filterUnits="userSpaceOnUse" color-interpolation-filters="sRGB">
<feFlood flood-opacity="0" result="BackgroundImageFix"/>
<feBlend mode="normal" in="SourceGraphic" in2="BackgroundImageFix" result="shape"/>
<feColorMatrix in="SourceAlpha" type="matrix" values="0 0 0 0 0 0 0 0 0 0 0 0 0 0 0 0 0 0 127 0" result="hardAlpha"/>
<feOffset dy="6.66667"/>
<feGaussianBlur stdDeviation="3.33333"/>
<feComposite in2="hardAlpha" operator="arithmetic" k2="-1" k3="1"/>
<feColorMatrix type="matrix" values="0 0 0 0 1 0 0 0 0 1 0 0 0 0 1 0 0 0 0.25 0"/>
<feBlend mode="normal" in2="shape" result="effect1_innerShadow_34_2667"/>
</filter>
<linearGradient id="paint0_linear_34_2667" x1="42.2201" y1="-14.47" x2="28.3103" y2="54.1165" gradientUnits="userSpaceOnUse">
<stop stop-color="#43BCF0"/>
<stop offset="0.592352" stop-color="#541896"/>
<stop offset="1" stop-color="#711280"/>
</linearGradient>
</defs>
</svg>
